<svg width="48" height="48" viewBox="0 0 48 48" fill="none" xmlns="http://www.w3.org/2000/svg">
<rect width="48" height="48" rx="4" fill="#C4FFE9"/>
<path d="M23.4766 33V13H24.7578V33H23.4766ZM27.4844 19.2031C27.401 18.4635 27.0573 17.8906 26.4531 17.4844C25.849 17.0729 25.0885 16.8672 24.1719 16.8672C23.5156 16.8672 22.9479 16.9714 22.4688 17.1797C21.9896 17.3828 21.6172 17.6641 21.3516 18.0234C21.0911 18.3776 20.9609 18.7812 20.9609 19.2344C20.9609 19.6146 21.0495 19.9427 21.2266 20.2187C21.4089 20.4948 21.6458 20.7266 21.9375 20.9141C22.2344 21.0964 22.5521 21.25 22.8906 21.375C23.2292 21.4948 23.5547 21.5937 23.8672 21.6719L25.4297 22.0781C25.9401 22.2031 26.4635 22.3724 27 22.5859C27.5365 22.7995 28.0339 23.0807 28.4922 23.4297C28.9505 23.7786 29.3203 24.2109 29.6016 24.7266C29.888 25.2422 30.0313 25.8594 30.0313 26.5781C30.0313 27.4844 29.7969 28.2891 29.3281 28.9922C28.8646 29.6953 28.1901 30.25 27.3047 30.6562C26.4245 31.0625 25.3594 31.2656 24.1094 31.2656C22.9115 31.2656 21.875 31.0755 21 30.6953C20.125 30.3151 19.4401 29.776 18.9453 29.0781C18.4505 28.375 18.1771 27.5417 18.125 26.5781H20.5469C20.5938 27.1562 20.7813 27.638 21.1094 28.0234C21.4427 28.4036 21.8672 28.6875 22.3828 28.875C22.9036 29.0573 23.474 29.1484 24.0938 29.1484C24.776 29.1484 25.3828 29.0417 25.9141 28.8281C26.4505 28.6094 26.8724 28.3073 27.1797 27.9219C27.487 27.5312 27.6406 27.0755 27.6406 26.5547C27.6406 26.0807 27.5052 25.6927 27.2344 25.3906C26.9688 25.0885 26.6068 24.8385 26.1484 24.6406C25.6953 24.4427 25.1823 24.2682 24.6094 24.1172L22.7188 23.6016C21.4375 23.2526 20.4219 22.7396 19.6719 22.0625C18.9271 21.3854 18.5547 20.4896 18.5547 19.375C18.5547 18.4531 18.8047 17.6484 19.3047 16.9609C19.8047 16.2734 20.4818 15.7396 21.3359 15.3594C22.1901 14.974 23.1536 14.7812 24.2266 14.7812C25.3099 14.7812 26.2656 14.9714 27.0938 15.3516C27.9271 15.7318 28.5833 16.2552 29.0625 16.9219C29.5417 17.5833 29.7917 18.3437 29.8125 19.2031H27.4844Z" fill="#0CD68A"/>
<path d="M23.4766 33H23.3766V33.1H23.4766V33ZM23.4766 13V12.9H23.3766V13H23.4766ZM24.7578 13H24.8578V12.9H24.7578V13ZM24.7578 33V33.1H24.8578V33H24.7578ZM27.4844 19.2031L27.385 19.2143L27.395 19.3031H27.4844V19.2031ZM26.4531 17.4844L26.3968 17.567L26.3973 17.5674L26.4531 17.4844ZM22.4688 17.1797L22.5078 17.2718L22.5086 17.2714L22.4688 17.1797ZM21.3516 18.0234L21.2711 17.964L21.271 17.9642L21.3516 18.0234ZM21.2266 20.2187L21.1424 20.2727L21.1431 20.2739L21.2266 20.2187ZM21.9375 20.9141L21.8834 20.9982L21.8852 20.9993L21.9375 20.9141ZM22.8906 21.375L22.856 21.4688L22.8573 21.4693L22.8906 21.375ZM23.8672 21.6719L23.8924 21.5751L23.8914 21.5749L23.8672 21.6719ZM25.4297 22.0781L25.4045 22.1749L25.4059 22.1753L25.4297 22.0781ZM29.6016 24.7266L29.5138 24.7744L29.5141 24.7751L29.6016 24.7266ZM29.3281 28.9922L29.2449 28.9367L29.2446 28.9371L29.3281 28.9922ZM27.3047 30.6562L27.263 30.5654L27.2628 30.5655L27.3047 30.6562ZM21 30.6953L21.0399 30.6036L21 30.6953ZM18.9453 29.0781L18.8635 29.1357L18.8637 29.136L18.9453 29.0781ZM18.125 26.5781V26.4781H18.0194L18.0251 26.5835L18.125 26.5781ZM20.5469 26.5781L20.6465 26.57L20.6391 26.4781H20.5469V26.5781ZM21.1094 28.0234L21.0332 28.0883L21.0342 28.0894L21.1094 28.0234ZM22.3828 28.875L22.3486 28.969L22.3498 28.9694L22.3828 28.875ZM25.9141 28.8281L25.9514 28.9209L25.9518 28.9207L25.9141 28.8281ZM27.1797 27.9219L27.2579 27.9842L27.2583 27.9837L27.1797 27.9219ZM27.2344 25.3906L27.1593 25.4567L27.1599 25.4574L27.2344 25.3906ZM26.1484 24.6406L26.1084 24.7323L26.1088 24.7324L26.1484 24.6406ZM24.6094 24.1172L24.5831 24.2137L24.5839 24.2139L24.6094 24.1172ZM22.7188 23.6016L22.7451 23.5051L22.745 23.5051L22.7188 23.6016ZM19.6719 22.0625L19.6046 22.1365L19.6049 22.1367L19.6719 22.0625ZM19.3047 16.9609L19.2238 16.9021L19.3047 16.9609ZM21.3359 15.3594L21.3766 15.4507L21.3771 15.4505L21.3359 15.3594ZM27.0938 15.3516L27.052 15.4424L27.0522 15.4425L27.0938 15.3516ZM29.0625 16.9219L28.9813 16.9802L28.9815 16.9805L29.0625 16.9219ZM29.8125 19.2031V19.3031H29.915L29.9125 19.2007L29.8125 19.2031ZM23.5766 33V13H23.3766V33H23.5766ZM23.4766 13.1H24.7578V12.9H23.4766V13.1ZM24.6578 13V33H24.8578V13H24.6578ZM24.7578 32.9H23.4766V33.1H24.7578V32.9ZM27.5837 19.1919C27.4972 18.4239 27.1381 17.8244 26.5089 17.4014L26.3973 17.5674C26.9765 17.9568 27.3049 18.5032 27.385 19.2143L27.5837 19.1919ZM26.5094 17.4017C25.8849 16.9764 25.1035 16.7672 24.1719 16.7672V16.9672C25.0736 16.9672 25.813 17.1694 26.3968 17.567L26.5094 17.4017ZM24.1719 16.7672C23.5053 16.7672 22.9234 16.873 22.4289 17.088L22.5086 17.2714C22.9724 17.0697 23.5259 16.9672 24.1719 16.9672V16.7672ZM22.4297 17.0876C21.9368 17.2966 21.549 17.588 21.2711 17.964L21.432 18.0829C21.6853 17.7401 22.0423 17.4691 22.5078 17.2718L22.4297 17.0876ZM21.271 17.9642C20.9975 18.3361 20.8609 18.7606 20.8609 19.2344H21.0609C21.0609 18.8019 21.1847 18.4191 21.4321 18.0827L21.271 17.9642ZM20.8609 19.2344C20.8609 19.6306 20.9534 19.9782 21.1424 20.2727L21.3107 20.1648C21.1455 19.9073 21.0609 19.5986 21.0609 19.2344H20.8609ZM21.1431 20.2739C21.3334 20.5621 21.5806 20.8035 21.8834 20.9982L21.9916 20.8299C21.711 20.6496 21.4843 20.4275 21.31 20.1636L21.1431 20.2739ZM21.8852 20.9993C22.1878 21.1851 22.5115 21.3416 22.856 21.4688L22.9253 21.2812C22.5927 21.1584 22.2809 21.0076 21.9898 20.8288L21.8852 20.9993ZM22.8573 21.4693C23.1985 21.59 23.527 21.6899 23.8429 21.7689L23.8914 21.5749C23.5823 21.4976 23.2599 21.3996 22.924 21.2807L22.8573 21.4693ZM23.842 21.7687L25.4045 22.1749L25.4549 21.9813L23.8924 21.5751L23.842 21.7687ZM25.4059 22.1753C25.9114 22.2991 26.4304 22.4669 26.963 22.6788L27.037 22.493C26.4966 22.2779 25.9688 22.1072 25.4535 21.981L25.4059 22.1753ZM26.963 22.6788C27.4911 22.889 27.9805 23.1658 28.4316 23.5093L28.5528 23.3501C28.0872 22.9957 27.5819 22.7099 27.037 22.493L26.963 22.6788ZM28.4316 23.5093C28.8785 23.8495 29.2391 24.2709 29.5138 24.7744L29.6894 24.6787C29.4015 24.1509 29.0225 23.7078 28.5528 23.3501L28.4316 23.5093ZM29.5141 24.7751C29.7907 25.273 29.9313 25.8727 29.9313 26.5781H30.1313C30.1313 25.8461 29.9853 25.2114 29.689 24.678L29.5141 24.7751ZM29.9313 26.5781C29.9313 27.4661 29.7019 28.2512 29.2449 28.9367L29.4113 29.0477C29.8918 28.3269 30.1313 27.5026 30.1313 26.5781H29.9313ZM29.2446 28.9371C28.7929 29.6223 28.1341 30.1657 27.263 30.5654L27.3464 30.7471C28.2461 30.3343 28.9362 29.7683 29.4116 29.0472L29.2446 28.9371ZM27.2628 30.5655C26.3989 30.9642 25.3489 31.1656 24.1094 31.1656V31.3656C25.3698 31.3656 26.45 31.1608 27.3466 30.747L27.2628 30.5655ZM24.1094 31.1656C22.9218 31.1656 21.8995 30.9771 21.0399 30.6036L20.9601 30.787C21.8505 31.1739 22.9011 31.3656 24.1094 31.3656V31.1656ZM21.0399 30.6036C20.1796 30.2298 19.5099 29.7016 19.0269 29.0203L18.8637 29.136C19.3703 29.8504 20.0704 30.4004 20.9601 30.787L21.0399 30.6036ZM19.0271 29.0206C18.5444 28.3346 18.2761 27.5199 18.2249 26.5727L18.0251 26.5835C18.0781 27.5634 18.3567 28.4154 18.8635 29.1357L19.0271 29.0206ZM18.125 26.6781H20.5469V26.4781H18.125V26.6781ZM20.4472 26.5862C20.4955 27.1821 20.6896 27.6846 21.0332 28.0883L21.1855 27.9586C20.8729 27.5914 20.692 27.1304 20.6465 26.57L20.4472 26.5862ZM21.0342 28.0894C21.3795 28.4833 21.8186 28.7762 22.3486 28.969L22.417 28.781C21.9158 28.5988 21.5059 28.324 21.1846 27.9575L21.0342 28.0894ZM22.3498 28.9694C22.8825 29.1558 23.4641 29.2484 24.0938 29.2484V29.0484C23.4838 29.0484 22.9248 28.9588 22.4158 28.7806L22.3498 28.9694ZM24.0938 29.2484C24.7864 29.2484 25.4062 29.14 25.9514 28.9209L25.8768 28.7353C25.3594 28.9433 24.7657 29.0484 24.0938 29.0484V29.2484ZM25.9518 28.9207C26.5013 28.6966 26.9382 28.3852 27.2579 27.9842L27.1015 27.8595C26.8066 28.2294 26.3997 28.5221 25.8763 28.7355L25.9518 28.9207ZM27.2583 27.9837C27.5801 27.5746 27.7406 27.0968 27.7406 26.5547H27.5406C27.5406 27.0543 27.3938 27.4879 27.1011 27.86L27.2583 27.9837ZM27.7406 26.5547C27.7406 26.0605 27.5988 25.6473 27.3088 25.3239L27.1599 25.4574C27.4116 25.7381 27.5406 26.101 27.5406 26.5547H27.7406ZM27.3095 25.3246C27.032 25.0091 26.6568 24.7512 26.1881 24.5488L26.1088 24.7324C26.5567 24.9259 26.9055 25.168 27.1593 25.4567L27.3095 25.3246ZM26.1885 24.549C25.7298 24.3487 25.2118 24.1726 24.6349 24.0205L24.5839 24.2139C25.1528 24.3639 25.6608 24.5368 26.1084 24.7323L26.1885 24.549ZM24.6357 24.0207L22.7451 23.5051L22.6924 23.698L24.5831 24.2137L24.6357 24.0207ZM22.745 23.5051C21.4743 23.159 20.4742 22.6521 19.7389 21.9883L19.6049 22.1367C20.3696 22.8271 21.4007 23.3462 22.6925 23.698L22.745 23.5051ZM19.7391 21.9885C19.0176 21.3325 18.6547 20.4648 18.6547 19.375H18.4547C18.4547 20.5144 18.8366 21.4383 19.6046 22.1365L19.7391 21.9885ZM18.6547 19.375C18.6547 18.4724 18.8991 17.6887 19.3856 17.0198L19.2238 16.9021C18.7103 17.6082 18.4547 18.4339 18.4547 19.375H18.6547ZM19.3856 17.0198C19.8742 16.3478 20.5368 15.8245 21.3766 15.4507L21.2953 15.268C20.4267 15.6546 19.7351 16.199 19.2238 16.9021L19.3856 17.0198ZM21.3771 15.4505C22.2166 15.0717 23.1658 14.8812 24.2266 14.8812V14.6812C23.1415 14.6812 22.1636 14.8762 21.2948 15.2682L21.3771 15.4505ZM24.2266 14.8812C25.2982 14.8812 26.2392 15.0693 27.052 15.4424L27.1355 15.2607C26.292 14.8734 25.3216 14.6812 24.2266 14.6812V14.8812ZM27.0522 15.4425C27.8716 15.8164 28.5134 16.3293 28.9813 16.9802L29.1437 16.8635C28.6532 16.1811 27.9826 15.6472 27.1353 15.2606L27.0522 15.4425ZM28.9815 16.9805C29.4482 17.6247 29.6922 18.3653 29.7125 19.2055L29.9125 19.2007C29.8912 18.3222 29.6352 17.5419 29.1435 16.8632L28.9815 16.9805ZM29.8125 19.1031H27.4844V19.3031H29.8125V19.1031Z" fill="#0CD68A"/>
</svg>
