<svg width="140" height="35" viewBox="0 0 140 35" fill="none" xmlns="http://www.w3.org/2000/svg">
<path d="M7.88636 27.3018C6.47775 27.3018 5.20194 26.9396 4.05895 26.2152C2.92401 25.4827 2.02249 24.4081 1.3544 22.9915C0.694366 21.5668 0.364347 19.8201 0.364347 17.7514C0.364347 15.6264 0.706439 13.8596 1.39062 12.451C2.07481 11.0343 2.98438 9.97585 4.11932 9.27557C5.26231 8.56724 6.51397 8.21307 7.87429 8.21307C8.91264 8.21307 9.77794 8.39015 10.4702 8.74432C11.1705 9.09044 11.7339 9.52509 12.1605 10.0483C12.5952 10.5634 12.9252 11.0705 13.1506 11.5696H13.3075V2.27273H18.4389V27H13.3679V24.0298H13.1506C12.9091 24.545 12.567 25.0561 12.1243 25.5632C11.6896 26.0623 11.1222 26.4768 10.4219 26.8068C9.72964 27.1368 8.88447 27.3018 7.88636 27.3018ZM9.51634 23.2088C10.3454 23.2088 11.0457 22.9834 11.6172 22.5327C12.1967 22.0739 12.6394 21.4339 12.9453 20.6129C13.2592 19.7919 13.4162 18.83 13.4162 17.7273C13.4162 16.6245 13.2633 15.6667 12.9574 14.8537C12.6515 14.0407 12.2088 13.4129 11.6293 12.9702C11.0497 12.5275 10.3454 12.3061 9.51634 12.3061C8.67117 12.3061 7.95881 12.5355 7.37926 12.9943C6.79972 13.4531 6.36103 14.089 6.06321 14.902C5.76539 15.715 5.61648 16.6567 5.61648 17.7273C5.61648 18.8059 5.76539 19.7597 6.06321 20.5888C6.36908 21.4098 6.80777 22.0537 7.37926 22.5206C7.95881 22.9794 8.67117 23.2088 9.51634 23.2088ZM22.1578 27V8.45454H27.3013V27H22.1578ZM24.7416 6.06392C23.9769 6.06392 23.3209 5.81037 22.7736 5.30327C22.2343 4.78811 21.9646 4.17235 21.9646 3.45596C21.9646 2.74763 22.2343 2.13991 22.7736 1.63281C23.3209 1.11766 23.9769 0.860084 24.7416 0.860084C25.5063 0.860084 26.1583 1.11766 26.6976 1.63281C27.2449 2.13991 27.5186 2.74763 27.5186 3.45596C27.5186 4.17235 27.2449 4.78811 26.6976 5.30327C26.1583 5.81037 25.5063 6.06392 24.7416 6.06392ZM39.2666 34.3409C37.6004 34.3409 36.1716 34.1115 34.9804 33.6527C33.7971 33.2019 32.8554 32.5862 32.1551 31.8054C31.4548 31.0246 31 30.1473 30.7907 29.1733L35.5478 28.5334C35.6927 28.9036 35.9221 29.2498 36.236 29.5717C36.55 29.8937 36.9645 30.1513 37.4796 30.3445C38.0028 30.5457 38.6387 30.6463 39.3873 30.6463C40.5062 30.6463 41.4278 30.3726 42.1522 29.8253C42.8847 29.286 43.251 28.3804 43.251 27.1087V23.7159H43.0336C42.8082 24.2311 42.4702 24.718 42.0194 25.1768C41.5687 25.6357 40.9891 26.0099 40.2808 26.2997C39.5724 26.5895 38.7273 26.7344 37.7453 26.7344C36.3528 26.7344 35.085 26.4124 33.942 25.7685C32.8071 25.1165 31.9015 24.1224 31.2254 22.7862C30.5573 21.442 30.2233 19.7436 30.2233 17.6911C30.2233 15.5902 30.5653 13.8355 31.2495 12.4268C31.9337 11.0182 32.8433 9.96378 33.9782 9.26349C35.1212 8.56321 36.3729 8.21307 37.7332 8.21307C38.7715 8.21307 39.6409 8.39015 40.3412 8.74432C41.0414 9.09044 41.6049 9.52509 42.0315 10.0483C42.4662 10.5634 42.8002 11.0705 43.0336 11.5696H43.2268V8.45454H48.334V27.1811C48.334 28.7588 47.9477 30.0788 47.175 31.1413C46.4022 32.2038 45.3317 33.0007 43.9633 33.532C42.603 34.0713 41.0374 34.3409 39.2666 34.3409ZM39.3752 22.8707C40.2043 22.8707 40.9046 22.6655 41.4761 22.255C42.0556 21.8364 42.4983 21.2408 42.8042 20.468C43.1181 19.6873 43.2751 18.7536 43.2751 17.6669C43.2751 16.5803 43.1222 15.6385 42.8163 14.8416C42.5104 14.0367 42.0677 13.4129 41.4882 12.9702C40.9086 12.5275 40.2043 12.3061 39.3752 12.3061C38.5301 12.3061 37.8177 12.5355 37.2382 12.9943C36.6586 13.4451 36.2199 14.0729 35.9221 14.8778C35.6243 15.6828 35.4754 16.6125 35.4754 17.6669C35.4754 18.7375 35.6243 19.6631 35.9221 20.4439C36.228 21.2166 36.6667 21.8163 37.2382 22.2429C37.8177 22.6615 38.5301 22.8707 39.3752 22.8707ZM51.9171 27V8.45454H57.0606V27H51.9171ZM54.5009 6.06392C53.7362 6.06392 53.0802 5.81037 52.5329 5.30327C51.9936 4.78811 51.7239 4.17235 51.7239 3.45596C51.7239 2.74763 51.9936 2.13991 52.5329 1.63281C53.0802 1.11766 53.7362 0.860084 54.5009 0.860084C55.2656 0.860084 55.9176 1.11766 56.4569 1.63281C57.0042 2.13991 57.2779 2.74763 57.2779 3.45596C57.2779 4.17235 57.0042 4.78811 56.4569 5.30327C55.9176 5.81037 55.2656 6.06392 54.5009 6.06392Z" fill="black"/>
<path d="M60.7673 27V2.27273H65.9108V11.5696H66.0678C66.2932 11.0705 66.6191 10.5634 67.0458 10.0483C67.4804 9.52509 68.0439 9.09044 68.7361 8.74432C69.4364 8.39015 70.3057 8.21307 71.3441 8.21307C72.6963 8.21307 73.944 8.56724 75.087 9.27557C76.2299 9.97585 77.1435 11.0343 77.8277 12.451C78.5119 13.8596 78.854 15.6264 78.854 17.7514C78.854 19.8201 78.52 21.5668 77.8519 22.9915C77.1918 24.4081 76.2903 25.4827 75.1473 26.2152C74.0124 26.9396 72.7406 27.3018 71.332 27.3018C70.3339 27.3018 69.4847 27.1368 68.7844 26.8068C68.0922 26.4768 67.5247 26.0623 67.082 25.5632C66.6393 25.0561 66.3012 24.545 66.0678 24.0298H65.8384V27H60.7673ZM65.8022 17.7273C65.8022 18.83 65.9551 19.7919 66.261 20.6129C66.5668 21.4339 67.0095 22.0739 67.5891 22.5327C68.1686 22.9834 68.8729 23.2088 69.702 23.2088C70.5391 23.2088 71.2475 22.9794 71.827 22.5206C72.4066 22.0537 72.8452 21.4098 73.1431 20.5888C73.4489 19.7597 73.6019 18.8059 73.6019 17.7273C73.6019 16.6567 73.453 15.715 73.1551 14.902C72.8573 14.089 72.4186 13.4531 71.8391 12.9943C71.2595 12.5355 70.5472 12.3061 69.702 12.3061C68.8649 12.3061 68.1566 12.5275 67.577 12.9702C67.0055 13.4129 66.5668 14.0407 66.261 14.8537C65.9551 15.6667 65.8022 16.6245 65.8022 17.7273ZM87.0643 27.3501C85.8811 27.3501 84.8267 27.1449 83.901 26.7344C82.9753 26.3158 82.2428 25.7 81.7035 24.8871C81.1723 24.0661 80.9067 23.0438 80.9067 21.8203C80.9067 20.79 81.0958 19.9247 81.4741 19.2244C81.8525 18.5241 82.3676 17.9607 83.0196 17.5341C83.6716 17.1075 84.4121 16.7855 85.2412 16.5682C86.0783 16.3509 86.9557 16.1979 87.8733 16.1094C88.9519 15.9967 89.8212 15.892 90.4812 15.7955C91.1413 15.6908 91.6202 15.5379 91.918 15.3366C92.2159 15.1354 92.3648 14.8376 92.3648 14.4432V14.3707C92.3648 13.6061 92.1233 13.0144 91.6403 12.5959C91.1654 12.1773 90.4893 11.968 89.6119 11.968C88.6863 11.968 87.9498 12.1733 87.4024 12.5838C86.8551 12.9863 86.4928 13.4934 86.3158 14.1051L81.5587 13.7188C81.8001 12.5919 82.275 11.6179 82.9834 10.7969C83.6917 9.9678 84.6053 9.33191 85.7241 8.8892C86.851 8.43845 88.155 8.21307 89.6361 8.21307C90.6664 8.21307 91.6524 8.33381 92.5942 8.57528C93.544 8.81676 94.3851 9.19105 95.1176 9.69815C95.8581 10.2053 96.4417 10.8572 96.8683 11.6541C97.2949 12.4429 97.5082 13.3887 97.5082 14.4915V27H92.6304V24.4283H92.4855C92.1877 25.0078 91.7892 25.5189 91.2902 25.9616C90.7911 26.3963 90.1915 26.7384 89.4912 26.9879C88.7909 27.2294 87.982 27.3501 87.0643 27.3501ZM88.5374 23.8004C89.294 23.8004 89.9621 23.6515 90.5416 23.3537C91.1212 23.0478 91.5759 22.6373 91.906 22.1222C92.236 21.607 92.401 21.0234 92.401 20.3714V18.4034C92.24 18.508 92.0187 18.6046 91.7369 18.6932C91.4633 18.7737 91.1534 18.8501 90.8072 18.9226C90.4611 18.987 90.115 19.0473 89.7689 19.1037C89.4228 19.152 89.1089 19.1963 88.8271 19.2365C88.2234 19.325 87.6962 19.4659 87.2455 19.6591C86.7947 19.8523 86.4446 20.1139 86.195 20.4439C85.9455 20.7659 85.8207 21.1683 85.8207 21.6513C85.8207 22.3516 86.0743 22.8868 86.5814 23.2571C87.0965 23.6193 87.7485 23.8004 88.5374 23.8004ZM106.132 16.2784V27H100.989V8.45454H105.891V11.7266H106.108C106.518 10.648 107.207 9.79474 108.173 9.1669C109.139 8.53101 110.31 8.21307 111.686 8.21307C112.974 8.21307 114.097 8.49479 115.055 9.05824C116.013 9.62168 116.757 10.4266 117.288 11.473C117.82 12.5114 118.085 13.7509 118.085 15.1918V27H112.942V16.1094C112.95 14.9744 112.66 14.089 112.072 13.4531C111.485 12.8092 110.676 12.4872 109.646 12.4872C108.953 12.4872 108.342 12.6361 107.81 12.9339C107.287 13.2318 106.877 13.6664 106.579 14.2379C106.289 14.8014 106.14 15.4815 106.132 16.2784ZM126.29 21.6634L126.302 15.4936H127.05L132.991 8.45454H138.895L130.914 17.7756H129.694L126.29 21.6634ZM121.629 27V2.27273H126.773V27H121.629ZM133.22 27L127.763 18.9226L131.192 15.2884L139.245 27H133.22Z" fill="#0CD68A"/>
</svg>
